<svg width="491" height="525" viewBox="0 0 491 525" fill="none" xmlns="http://www.w3.org/2000/svg">
<rect x="-32.0747" y="-18.451" width="543.192" height="543.192" fill="#FFC224"/>
<mask id="mask0_2640_54461" style="mask-type:alpha" maskUnits="userSpaceOnUse" x="-33" y="-19" width="545" height="544">
<rect x="-32.0747" y="-18.451" width="543.192" height="543.192" fill="#F1F0EE"/>
</mask>
<g mask="url(#mask0_2640_54461)">
<path d="M266.16 398.915L266.204 399.151L266.184 399.39L212.082 1055.18L211.946 1056.82H210.3H-23.2824H-24.8445L-25.0545 1055.27L-23.2824 1055.03C-25.0545 1055.27 -25.0547 1055.27 -25.055 1055.27L-25.0563 1055.26L-25.0612 1055.22L-25.0802 1055.08C-25.097 1054.95 -25.1217 1054.76 -25.154 1054.52C-25.2185 1054.02 -25.313 1053.28 -25.4335 1052.31C-25.6746 1050.37 -26.0194 1047.49 -26.4359 1043.75C-27.2689 1036.27 -28.3881 1025.34 -29.5349 1011.53C-31.8285 983.904 -34.2328 944.742 -34.6774 898.577C-35.5665 806.267 -28.6218 685.863 2.7627 573.686C34.2204 461.248 96.6996 401.998 151.399 370.891C178.729 355.348 204.092 346.844 222.631 342.225C231.902 339.915 239.471 338.575 244.731 337.812C247.361 337.431 249.415 337.193 250.817 337.051C251.517 336.98 252.055 336.933 252.421 336.903C252.603 336.888 252.743 336.877 252.838 336.871C252.886 336.867 252.922 336.865 252.947 336.863L252.977 336.861L252.985 336.86C252.988 336.86 252.99 336.86 253.101 338.645L252.99 336.86L254.569 336.761L254.859 338.317L266.16 398.915Z" fill="#FF4A60" stroke="#0B0B0B" stroke-width="3.57665" stroke-miterlimit="10"/>
<path d="M40.7164 523.365C38.8673 524.141 37.2899 525.448 36.1835 527.12C35.077 528.793 34.4911 530.756 34.5003 532.761C34.5094 534.767 35.1132 536.724 36.2348 538.387C37.3565 540.049 38.946 541.341 40.8022 542.101C42.6583 542.86 44.6977 543.051 46.6629 542.652C48.628 542.252 50.4302 541.278 51.8421 539.854C53.2539 538.43 54.2121 536.619 54.5949 534.65C54.9777 532.682 54.7678 530.644 53.9925 528.794C53.4776 527.566 52.7259 526.451 51.7799 525.513C50.834 524.576 49.7123 523.833 48.4794 523.329C47.2465 522.825 45.9264 522.568 44.5944 522.575C43.2624 522.581 41.9446 522.849 40.7164 523.365Z" fill="#FF4A60"/>
<path d="M44.6523 1055.65V554.83C44.6523 438.766 146.131 344.672 271.311 344.672C396.491 344.672 497.963 438.766 497.963 554.83V1055.65H44.6523Z" fill="#FF4A60"/>
<path d="M271.311 344.672C396.491 344.672 497.963 438.766 497.963 554.83V1055.65H44.6523V554.83" stroke="#0B0B0B" stroke-width="3.57665" stroke-miterlimit="10"/>
<path d="M71.5038 481.397C69.657 482.174 68.0816 483.481 66.9771 485.152C65.8726 486.824 65.2883 488.785 65.2981 490.788C65.3079 492.792 65.9114 494.748 67.0322 496.408C68.1531 498.069 69.741 499.36 71.5954 500.118C73.4498 500.877 75.4874 501.068 77.4507 500.669C79.414 500.27 81.2152 499.298 82.6262 497.876C84.0372 496.453 84.9948 494.644 85.3782 492.678C85.7616 490.712 85.5533 488.676 84.78 486.827C84.2657 485.598 83.5144 484.483 82.5686 483.545C81.6228 482.606 80.5012 481.864 79.2681 481.359C78.035 480.855 76.7145 480.599 75.3823 480.605C74.05 480.612 72.732 480.881 71.5038 481.397V481.397Z" fill="#FFC224"/>
<path d="M154.901 498.964C153.053 499.741 151.477 501.048 150.371 502.721C149.266 504.394 148.681 506.357 148.691 508.362C148.701 510.367 149.305 512.324 150.427 513.986C151.549 515.647 153.139 516.939 154.995 517.698C156.85 518.457 158.89 518.648 160.854 518.248C162.819 517.848 164.621 516.875 166.033 515.451C167.444 514.027 168.402 512.217 168.785 510.248C169.168 508.28 168.959 506.243 168.185 504.394C167.67 503.164 166.918 502.047 165.972 501.109C165.026 500.17 163.904 499.427 162.67 498.922C161.436 498.418 160.114 498.162 158.781 498.169C157.448 498.176 156.13 498.446 154.901 498.964V498.964Z" fill="#FFC224"/>
<path d="M217.216 483.644C215.368 484.421 213.791 485.729 212.685 487.402C211.58 489.075 210.996 491.038 211.006 493.043C211.016 495.048 211.619 497.005 212.741 498.666C213.863 500.328 215.453 501.62 217.309 502.379C219.165 503.137 221.204 503.329 223.169 502.929C225.133 502.529 226.935 501.555 228.347 500.132C229.759 498.708 230.716 496.897 231.099 494.929C231.482 492.961 231.273 490.924 230.499 489.074C229.985 487.844 229.234 486.727 228.288 485.788C227.342 484.848 226.219 484.105 224.985 483.601C223.751 483.096 222.429 482.84 221.096 482.848C219.763 482.855 218.444 483.126 217.216 483.644V483.644Z" fill="#FFC224"/>
<path d="M177.225 414.968C175.379 415.746 173.805 417.053 172.702 418.725C171.598 420.396 171.015 422.358 171.026 424.361C171.036 426.364 171.64 428.319 172.762 429.979C173.883 431.639 175.471 432.929 177.325 433.687C179.179 434.445 181.216 434.637 183.179 434.237C185.142 433.838 186.942 432.866 188.353 431.444C189.764 430.022 190.721 428.214 191.105 426.248C191.489 424.282 191.281 422.246 190.509 420.398C189.467 417.917 187.482 415.951 184.991 414.932C182.5 413.914 179.707 413.927 177.225 414.968V414.968Z" fill="#FFC224"/>
<path d="M112.709 443.652C110.861 444.432 109.286 445.743 108.183 447.418C107.08 449.093 106.498 451.057 106.511 453.063C106.525 455.069 107.133 457.026 108.258 458.686C109.384 460.346 110.977 461.635 112.835 462.39C114.693 463.145 116.734 463.332 118.698 462.927C120.663 462.522 122.463 461.544 123.871 460.116C125.28 458.687 126.233 456.874 126.61 454.904C126.988 452.934 126.773 450.896 125.992 449.048C125.476 447.821 124.722 446.708 123.774 445.772C122.827 444.836 121.704 444.096 120.47 443.595C119.236 443.094 117.916 442.841 116.584 442.851C115.252 442.861 113.935 443.133 112.709 443.652V443.652Z" fill="#FFC224"/>
<path d="M288.572 456.731C286.723 457.507 285.145 458.814 284.039 460.487C282.932 462.159 282.347 464.122 282.356 466.128C282.365 468.133 282.969 470.091 284.091 471.753C285.212 473.416 286.801 474.708 288.658 475.467C290.514 476.226 292.554 476.418 294.519 476.018C296.484 475.618 298.286 474.645 299.698 473.221C301.11 471.796 302.067 469.986 302.45 468.017C302.833 466.048 302.624 464.011 301.848 462.161C301.333 460.933 300.581 459.818 299.635 458.88C298.689 457.942 297.568 457.2 296.335 456.696C295.102 456.192 293.782 455.935 292.45 455.941C291.118 455.947 289.8 456.216 288.572 456.731V456.731Z" fill="#FFC224"/>
<path d="M242.207 391.899C240.361 392.676 238.787 393.983 237.684 395.655C236.58 397.327 235.997 399.288 236.007 401.291C236.018 403.294 236.622 405.249 237.743 406.909C238.864 408.569 240.452 409.86 242.306 410.618C244.161 411.376 246.198 411.567 248.161 411.168C250.124 410.769 251.924 409.797 253.335 408.374C254.745 406.952 255.704 405.144 256.087 403.178C256.471 401.212 256.263 399.177 255.49 397.328C254.449 394.847 252.464 392.881 249.973 391.863C247.482 390.844 244.689 390.857 242.207 391.899V391.899Z" fill="#FFC224"/>
<path d="M323.187 518.002C321.341 518.779 319.767 520.086 318.664 521.758C317.56 523.43 316.977 525.391 316.988 527.394C316.998 529.397 317.602 531.352 318.723 533.012C319.844 534.672 321.433 535.963 323.287 536.721C325.141 537.479 327.178 537.67 329.141 537.271C331.104 536.872 332.904 535.9 334.315 534.477C335.726 533.055 336.683 531.247 337.067 529.281C337.451 527.315 337.243 525.28 336.47 523.431C335.956 522.202 335.203 521.086 334.257 520.148C333.31 519.21 332.188 518.467 330.954 517.963C329.721 517.459 328.4 517.202 327.067 517.209C325.734 517.216 324.416 517.485 323.187 518.002V518.002Z" fill="#FFC224"/>
<path d="M134.47 396.141C132.377 397.02 130.049 397.17 127.861 396.566C125.672 395.963 123.75 394.642 122.402 392.816C127.647 388.621 133.099 384.653 138.76 380.91C139.655 382.143 140.258 383.561 140.526 385.06C140.794 386.559 140.719 388.1 140.306 389.565C139.893 391.031 139.154 392.384 138.143 393.523C137.132 394.662 135.876 395.557 134.47 396.141Z" fill="#FFC224"/>
<path d="M191.721 371.455C189.981 372.199 188.067 372.438 186.197 372.146C184.327 371.854 182.577 371.041 181.146 369.802C179.716 368.563 178.663 366.946 178.107 365.137C177.552 363.328 177.516 361.399 178.004 359.57C183.088 357.48 188.253 355.498 193.52 353.787C195.016 354.814 196.208 356.225 196.971 357.871C197.734 359.518 198.039 361.339 197.855 363.144C197.671 364.95 197.005 366.672 195.925 368.131C194.846 369.589 193.394 370.731 191.721 371.435V371.455Z" fill="#FFC224"/>
<path d="M332.14 352.336C332.14 352.336 444.886 367.424 555.446 522.856C677.117 693.899 656.796 863.951 587.51 901.268C518.224 938.585 350.629 900.589 253.087 784.178L320.439 643.102L533.333 679.883" stroke="#0B0B0B" stroke-width="3.57665" stroke-linecap="round" stroke-linejoin="round"/>
<path d="M320.452 643.102L461.631 667.496L460.599 667.312L422.766 564.144L332.14 352.336C332.14 352.336 444.886 367.424 555.446 522.856C677.117 693.899 656.796 863.951 587.51 901.268C518.224 938.585 350.629 900.589 253.087 784.178L320.452 643.102Z" fill="#FF4A60"/>
<path d="M332.14 352.336C332.14 352.336 444.886 367.424 555.446 522.856C677.117 693.899 656.796 863.951 587.51 901.268C518.224 938.585 350.629 900.589 253.087 784.178L320.439 643.102L533.333 679.883" stroke="#0B0B0B" stroke-width="3.57665" stroke-linecap="round" stroke-linejoin="round"/>
<path d="M453.716 519.252C451.866 520.028 450.289 521.335 449.182 523.007C448.076 524.68 447.49 526.643 447.499 528.648C447.509 530.653 448.112 532.611 449.234 534.274C450.356 535.936 451.945 537.228 453.801 537.988C455.657 538.747 457.697 538.938 459.662 538.539C461.627 538.139 463.429 537.165 464.841 535.741C466.253 534.317 467.211 532.506 467.594 530.537C467.976 528.569 467.767 526.531 466.992 524.681C466.477 523.453 465.725 522.338 464.779 521.4C463.833 520.463 462.711 519.72 461.479 519.216C460.246 518.712 458.925 518.455 457.593 518.462C456.261 518.468 454.944 518.736 453.716 519.252V519.252Z" fill="#FFC224"/>
<path d="M439.867 434.293C438.021 435.07 436.448 436.378 435.344 438.049C434.241 439.721 433.657 441.682 433.668 443.686C433.679 445.689 434.283 447.644 435.404 449.304C436.525 450.964 438.113 452.254 439.967 453.012C441.821 453.77 443.858 453.961 445.821 453.562C447.784 453.163 449.584 452.191 450.995 450.769C452.406 449.347 453.364 447.539 453.747 445.573C454.131 443.606 453.923 441.571 453.151 439.723C452.637 438.492 451.886 437.375 450.94 436.436C449.993 435.497 448.871 434.754 447.637 434.249C446.403 433.745 445.081 433.489 443.748 433.496C442.415 433.504 441.096 433.774 439.867 434.293V434.293Z" fill="#FFC224"/>
<path d="M390.029 471.258C388.183 472.035 386.609 473.342 385.505 475.014C384.402 476.686 383.818 478.647 383.829 480.65C383.84 482.653 384.444 484.608 385.565 486.268C386.686 487.928 388.274 489.219 390.128 489.977C391.982 490.735 394.02 490.926 395.982 490.527C397.945 490.128 399.746 489.156 401.157 487.734C402.567 486.312 403.525 484.503 403.909 482.537C404.292 480.571 404.084 478.536 403.312 476.688C402.27 474.206 400.286 472.24 397.795 471.222C395.304 470.203 392.51 470.216 390.029 471.258Z" fill="#FFC224"/>
<path d="M387.694 400.736C385.846 401.516 384.27 402.826 383.167 404.501C382.064 406.176 381.482 408.141 381.496 410.147C381.509 412.153 382.117 414.109 383.243 415.769C384.369 417.43 385.961 418.719 387.819 419.474C389.678 420.229 391.718 420.415 393.683 420.011C395.647 419.606 397.448 418.627 398.856 417.199C400.264 415.771 401.218 413.957 401.595 411.987C401.973 410.017 401.757 407.98 400.977 406.132C399.93 403.656 397.943 401.696 395.452 400.684C392.962 399.672 390.171 399.691 387.694 400.736V400.736Z" fill="#FFC224"/>
<path d="M321.666 391.899C319.82 392.677 318.245 393.984 317.142 395.655C316.038 397.327 315.456 399.289 315.466 401.292C315.477 403.295 316.081 405.25 317.202 406.91C318.323 408.57 319.911 409.86 321.765 410.618C323.619 411.376 325.656 411.567 327.619 411.168C329.582 410.769 331.383 409.797 332.794 408.375C334.204 406.953 335.162 405.145 335.546 403.179C335.929 401.213 335.722 399.177 334.949 397.329C334.434 396.1 333.682 394.984 332.735 394.046C331.789 393.107 330.667 392.365 329.433 391.86C328.199 391.356 326.878 391.1 325.545 391.107C324.213 391.113 322.894 391.382 321.666 391.899V391.899Z" fill="#FFC224"/>
<path d="M369.47 371.734C367.627 372.514 365.595 372.732 363.629 372.358C361.663 371.984 359.851 371.036 358.424 369.634C356.996 368.232 356.016 366.438 355.607 364.479C355.198 362.52 355.378 360.484 356.126 358.627C361.617 360.48 367.97 362.876 375.015 365.897C374.542 367.199 373.805 368.389 372.851 369.394C371.897 370.398 370.746 371.195 369.47 371.734Z" fill="#FFC224"/>
<path d="M306.008 63.3408C339.856 80.1736 359.791 120.246 355.556 162.831C349.725 221.583 298.542 265.253 298.542 265.253L294.958 167.514L289.338 164.521L306.008 63.3408Z" fill="#0B0B0B"/>
<path d="M319.244 181.898C312.132 181.864 305.189 184.06 299.391 188.176L299.465 167.753C299.587 135.377 276.388 108.804 247.982 108.702L205.222 108.546C176.783 108.438 153.42 134.841 153.298 167.217L153.054 233.516C152.932 265.892 176.131 292.465 204.536 292.567L229.27 292.655L229.134 328.377C229.128 335.433 231.916 342.204 236.887 347.211C241.859 352.218 248.61 355.054 255.666 355.099L272.634 355.167C279.691 355.172 286.463 352.385 291.471 347.414C296.479 342.443 299.317 335.691 299.363 328.635L299.513 288.277V286.024L299.662 245.666C299.662 244.851 299.594 244.057 299.519 243.27C303.855 246.386 308.866 248.433 314.144 249.243C319.421 250.054 324.816 249.606 329.887 247.935C334.958 246.263 339.562 243.417 343.324 239.628C347.085 235.838 349.897 231.213 351.531 226.13C353.165 221.047 353.573 215.649 352.724 210.378C351.874 205.107 349.791 200.111 346.643 195.798C343.495 191.486 339.371 187.978 334.61 185.563C329.848 183.147 324.583 181.891 319.244 181.898Z" fill="white" stroke="#0B0B0B" stroke-width="3.57665" stroke-linecap="round" stroke-linejoin="round"/>
<path d="M302.906 220.164C302.577 217.254 302.94 214.308 303.965 211.565C304.991 208.822 306.65 206.36 308.808 204.38C310.965 202.4 313.56 200.957 316.381 200.17C319.201 199.383 322.168 199.273 325.039 199.85" stroke="#0B0B0B" stroke-width="3.57665" stroke-linecap="round" stroke-linejoin="round"/>
<path d="M319.583 88.2173C318.13 86.7445 316.59 85.4005 315.069 84.0295L320.343 72.4909C303.885 59.3781 282.947 53.2289 262.012 55.3595C190.174 22.4201 165.448 74.3642 145.011 79.0068C127.873 82.8892 119.68 77.8597 119.544 77.086C118.458 99.6948 145.513 101.731 145.513 101.731L103.397 90.0974L104.076 96.7219C108.148 121.835 137.28 126.804 143.341 127.944L119.666 124.381C122.219 131.193 126.454 137.248 131.977 141.982C137.501 146.716 144.133 149.975 151.255 151.456C161.173 152.938 171.27 152.734 181.12 150.852C169.503 156.583 156.861 159.943 143.932 160.734C174.685 170.101 219.272 161.101 241.439 139.014C243.455 144.96 245.816 150.782 248.512 156.451C255.815 172.137 271.874 183.221 284.485 189.879L275.329 233.013C275.329 233.013 222.496 220.192 190.032 220.436C157.567 220.68 153.054 233.577 153.054 233.577C153.054 233.577 153.332 278.021 186.862 288.989C215.301 298.295 229.27 292.722 229.27 292.722C229.27 292.722 265.175 283.45 282.422 264.595C288.536 258.287 293.608 251.047 297.449 243.147L298.949 191.108C300.212 190.13 301.135 189.458 302.289 188.657C306.995 184.763 312.787 182.414 318.877 181.931C326.795 182.05 334.459 184.742 340.712 189.601C350.249 171.2 351.416 120.559 319.583 88.2173Z" fill="#0B0B0B"/>
<path d="M219.469 197.386C219.51 187.497 223.854 179.494 229.175 179.508C234.497 179.521 238.793 187.564 238.752 197.461" stroke="#0B0B0B" stroke-width="3.57665" stroke-linecap="round" stroke-linejoin="round"/>
<path d="M159.196 194.542C159.23 186.099 162.936 179.264 167.483 179.284C172.031 179.305 175.689 186.16 175.628 194.603" stroke="#0B0B0B" stroke-width="3.57665" stroke-linecap="round" stroke-linejoin="round"/>
<path d="M199.019 215.223L181.949 204.736L196.997 179.392" stroke="#0B0B0B" stroke-width="3.57665" stroke-linecap="round" stroke-linejoin="round"/>
<path d="M244.915 175.856L228.387 169.177" stroke="#0B0B0B" stroke-width="3.57665" stroke-linecap="round" stroke-linejoin="round"/>
<path d="M174.279 169.951L158.423 172.232" stroke="#0B0B0B" stroke-width="3.57665" stroke-linecap="round" stroke-linejoin="round"/>
<path d="M180.624 239.055C180.617 241.003 180.993 242.934 181.732 244.737C182.471 246.54 183.558 248.179 184.931 249.562C186.304 250.945 187.935 252.044 189.733 252.796C191.53 253.548 193.458 253.939 195.406 253.946C197.355 253.953 199.286 253.577 201.089 252.838C202.891 252.099 204.531 251.012 205.914 249.639C207.297 248.266 208.396 246.635 209.148 244.837C209.9 243.04 210.291 241.112 210.298 239.163L180.624 239.055Z" fill="white"/>
<path d="M263.859 64.0813C264.309 64.0824 264.751 63.9639 265.141 63.7381C265.53 63.5123 265.853 63.1872 266.076 62.7959C266.299 62.4046 266.414 61.9612 266.41 61.511C266.405 61.0607 266.282 60.6196 266.051 60.2328C265.372 59.1333 249.761 33.3818 229.012 29.7845C228.682 29.7203 228.343 29.7234 228.015 29.7936C227.686 29.8638 227.376 29.9996 227.101 30.193C226.827 30.3864 226.594 30.6333 226.417 30.9188C226.241 31.2044 226.124 31.5227 226.073 31.8547C225.954 32.5151 226.102 33.1957 226.483 33.7477C226.865 34.2998 227.449 34.6782 228.109 34.8004C246.551 37.9972 261.496 62.6288 261.646 62.846C261.874 63.2277 262.199 63.5427 262.587 63.7595C262.975 63.9763 263.414 64.0873 263.859 64.0813V64.0813Z" fill="#0B0B0B"/>
<path d="M318.832 366.606L209.564 365.921C195.529 365.833 184.223 354.385 184.311 340.351L184.395 326.946C184.483 312.911 195.932 301.605 209.966 301.693L319.235 302.378C333.269 302.466 344.575 313.914 344.487 327.949L344.403 341.354C344.315 355.388 332.867 366.694 318.832 366.606Z" fill="#FF4A60" stroke="#0B0B0B" stroke-width="3.57665" stroke-miterlimit="10"/>
</g>
</svg>
